<?xml version="1.0" encoding="UTF-8" standalone="no"?>
<svg
   xmlns:dc="http://purl.org/dc/elements/1.1/"
   xmlns:cc="http://creativecommons.org/ns#"
   xmlns:rdf="http://www.w3.org/1999/02/22-rdf-syntax-ns#"
   xmlns:svg="http://www.w3.org/2000/svg"
   xmlns="http://www.w3.org/2000/svg"
   xmlns:sodipodi="http://sodipodi.sourceforge.net/DTD/sodipodi-0.dtd"
   xmlns:inkscape="http://www.inkscape.org/namespaces/inkscape"
   height="24"
   viewBox="0 0 6.35 6.35"
   width="24"
   version="1.1"
   id="svg34"
   sodipodi:docname="mUniqueValuesViewer.svg"
   inkscape:version="1.0.1 (3bc2e813f5, 2020-09-07)"
   inkscape:export-filename="C:\Users\Malik\AppData\Roaming\QGIS\QGIS3\profiles\default\python\plugins\unique_values_viewer\icon2.png"
   inkscape:export-xdpi="95.975815"
   inkscape:export-ydpi="95.975815">
  <metadata
     id="metadata40">
    <rdf:RDF>
      <cc:Work
         rdf:about="">
        <dc:format>image/svg+xml</dc:format>
        <dc:type
           rdf:resource="http://purl.org/dc/dcmitype/StillImage" />
        <dc:title></dc:title>
      </cc:Work>
    </rdf:RDF>
  </metadata>
  <defs
     id="defs38" />
  <sodipodi:namedview
     pagecolor="#ffffff"
     bordercolor="#666666"
     borderopacity="1"
     objecttolerance="10"
     gridtolerance="10"
     guidetolerance="10"
     inkscape:pageopacity="0"
     inkscape:pageshadow="2"
     inkscape:window-width="3840"
     inkscape:window-height="2066"
     id="namedview36"
     showgrid="false"
     inkscape:zoom="42"
     inkscape:cx="3.8928571"
     inkscape:cy="12"
     inkscape:window-x="-11"
     inkscape:window-y="-11"
     inkscape:window-maximized="1"
     inkscape:current-layer="svg34" />
  <g
     stroke-linecap="round"
     stroke-width=".265"
     id="g32">
    <path
       d="m.397.661h4.233v1.323h-4.233z"
       fill="#8cbe8c"
       stroke="#61635f"
       id="path26" />
    <path
       d="m.926 2.514h4.233v1.323h-4.233z"
       fill="#7c96a8"
       stroke="#517083"
       id="path28" />
    <path
       d="m1.455 4.366h4.233v1.323h-4.233z"
       fill="#e6e6e6"
       stroke="#585a56"
       stroke-opacity=".933"
       id="path30" />
  </g>
  <path
     d="M 3.7017071,3.8343999 C 3.4450408,4.0158378 3.1309916,4.1225574 2.7918172,4.1225574 c -0.8669181,0 -1.5696941,-0.6971944 -1.5696941,-1.5572276 0,-0.8600331 0.702776,-1.5572276 1.5696941,-1.5572276 0.8669183,0 1.5696942,0.6971945 1.5696942,1.5572276 0,0.3364806 -0.1075737,0.6480356 -0.2904644,0.9026635 l 1.0313447,1.0231539 c 0.1016052,0.1007982 0.1007579,0.2620816 -3.7e-5,0.3620762 l -0.00432,0.00429 C 4.9974974,4.9572524 4.8338347,4.9575242 4.73306,4.85755 Z M 2.7918172,3.7561509 c 0.6629374,0 1.2003544,-0.5331488 1.2003544,-1.1908211 0,-0.6576723 -0.537417,-1.1908211 -1.2003544,-1.1908211 -0.6629373,0 -1.2003543,0.5331488 -1.2003543,1.1908211 0,0.6576723 0.537417,1.1908211 1.2003543,1.1908211 z"
     fill="#929292"
     fill-rule="evenodd"
     id="path52"
     style="fill:#000000;stroke-width:0.183935" />
</svg>
