<svg height="20.005039" viewBox="0 0 5.5560002 5.293" width="20.999056" xmlns="http://www.w3.org/2000/svg"><g transform="translate(-.2645 -.5285)"><g stroke-linecap="round" stroke-width=".265"><path d="m.397.661h4.233v1.323h-4.233z" fill="#8cbe8c" stroke="#61635f"/><path d="m.926 2.514h4.233v1.323h-4.233z" fill="#7c96a8" stroke="#517083"/><path d="m1.455 4.366h4.233v1.323h-4.233z" fill="#e6e6e6" stroke="#585a56" stroke-opacity=".933"/></g><path d="m3.7017071 3.8343999c-.2566663.1814379-.5707155.2881575-.9098899.2881575-.8669181 0-1.5696941-.6971944-1.5696941-1.5572276 0-.8600331.702776-1.5572276 1.5696941-1.5572276.8669183 0 1.5696942.6971945 1.5696942 1.5572276 0 .3364806-.1075737.6480356-.2904644.9026635l1.0313447 1.0231539c.1016052.1007982.1007579.2620816-.000037.3620762l-.00432.00429c-.1005373.099739-.2642.1000108-.3649747.0000366zm-.9098899-.078249c.6629374 0 1.2003544-.5331488 1.2003544-1.1908211s-.537417-1.1908211-1.2003544-1.1908211c-.6629373 0-1.2003543.5331488-1.2003543 1.1908211s.537417 1.1908211 1.2003543 1.1908211z" fill-rule="evenodd" stroke-width=".183935"/></g></svg>